<svg width="111" height="40" viewBox="0 0 111 40" fill="none" xmlns="http://www.w3.org/2000/svg">
<path d="M101.413 20.625H98.7468L102.809 8.80054H106.015L110.071 20.625H107.405L104.458 11.5026H104.366L101.413 20.625ZM101.246 15.9772H107.543V17.9287H101.246V15.9772Z" fill="#113453"/>
<path d="M88.2295 20.625V8.80054H90.7173V14.0142H90.8724L95.1069 8.80054H98.0888L93.7222 14.095L98.1405 20.625H95.1643L91.9411 15.7636L90.7173 17.2647V20.625H88.2295Z" fill="#113453"/>
<path d="M76.9741 10.8617V8.80054H86.6381V10.8617H83.0356V20.625H80.5766V10.8617H76.9741Z" fill="#113453"/>
<path d="M72.9681 20.625V11.7566H75.4157V20.625H72.9681ZM74.1977 10.6135C73.8338 10.6135 73.5216 10.4922 73.2612 10.2497C73.0045 10.0034 72.8762 9.70891 72.8762 9.36634C72.8762 9.02762 73.0045 8.73701 73.2612 8.49452C73.5216 8.24817 73.8338 8.125 74.1977 8.125C74.5616 8.125 74.8718 8.24817 75.1285 8.49452C75.3889 8.73701 75.5192 9.02762 75.5192 9.36634C75.5192 9.70891 75.3889 10.0034 75.1285 10.2497C74.8718 10.4922 74.5616 10.6135 74.1977 10.6135Z" fill="#113453"/>
<path d="M63.037 8.80054L65.8811 17.7844H65.9902L68.84 8.80054H71.5978L67.5415 20.625H64.3355L60.2734 8.80054H63.037Z" fill="#113453"/>
<path d="M49.7561 20.625V8.80054H52.2439V14.0142H52.399L56.6335 8.80054H59.6154L55.2488 14.095L59.6671 20.625H56.6909L53.4677 15.7636L52.2439 17.2647V20.625H49.7561Z" fill="#113453"/>
<path d="M109.314 30.0678C108.922 30.0678 108.584 29.9808 108.299 29.8068C108.017 29.631 107.798 29.386 107.645 29.0717C107.493 28.7556 107.417 28.3881 107.417 27.9691C107.417 27.55 107.493 27.1807 107.645 26.8611C107.798 26.5397 108.012 26.2894 108.286 26.11C108.562 25.9289 108.883 25.8384 109.251 25.8384C109.463 25.8384 109.672 25.8739 109.879 25.9449C110.086 26.0159 110.274 26.1313 110.443 26.2911C110.613 26.4492 110.748 26.6587 110.849 26.9197C110.95 27.1807 111 27.5021 111 27.8838V28.1502H107.862V27.6068H110.364C110.364 27.376 110.318 27.1701 110.226 26.9889C110.136 26.8078 110.007 26.6649 109.839 26.5601C109.673 26.4554 109.477 26.403 109.251 26.403C109.002 26.403 108.786 26.4652 108.604 26.5894C108.424 26.712 108.285 26.8718 108.188 27.0688C108.091 27.2659 108.042 27.4772 108.042 27.7027V28.0649C108.042 28.3739 108.095 28.6358 108.201 28.8506C108.309 29.0637 108.458 29.2262 108.649 29.338C108.84 29.4481 109.062 29.5032 109.314 29.5032C109.479 29.5032 109.627 29.4801 109.76 29.4339C109.894 29.386 110.01 29.3149 110.107 29.2208C110.204 29.125 110.279 29.006 110.332 28.8639L110.936 29.0344C110.873 29.2404 110.766 29.4215 110.616 29.5777C110.466 29.7322 110.28 29.8529 110.059 29.9399C109.838 30.0252 109.59 30.0678 109.314 30.0678Z" fill="#113453"/>
<path d="M103.867 27.5216V29.9826H103.242V25.8916H103.846V26.5309H103.899C103.994 26.3231 104.139 26.1562 104.334 26.0301C104.528 25.9023 104.779 25.8384 105.086 25.8384C105.362 25.8384 105.603 25.8952 105.81 26.0088C106.017 26.1207 106.177 26.2911 106.292 26.5202C106.407 26.7475 106.465 27.0351 106.465 27.3831V29.9826H105.839V27.4257C105.839 27.1044 105.756 26.854 105.59 26.6747C105.424 26.4936 105.196 26.403 104.906 26.403C104.706 26.403 104.528 26.4465 104.371 26.5335C104.215 26.6205 104.092 26.7475 104.002 26.9144C103.912 27.0813 103.867 27.2837 103.867 27.5216Z" fill="#113453"/>
<path d="M101.47 29.9827V25.8918H102.096V29.9827H101.47ZM101.789 25.2099C101.667 25.2099 101.561 25.1682 101.473 25.0848C101.387 25.0013 101.343 24.901 101.343 24.7838C101.343 24.6666 101.387 24.5663 101.473 24.4828C101.561 24.3994 101.667 24.3577 101.789 24.3577C101.91 24.3577 102.015 24.3994 102.101 24.4828C102.19 24.5663 102.234 24.6666 102.234 24.7838C102.234 24.901 102.19 25.0013 102.101 25.0848C102.015 25.1682 101.91 25.2099 101.789 25.2099Z" fill="#113453"/>
<path d="M98.463 30.0784C98.205 30.0784 97.9709 30.0296 97.7607 29.932C97.5504 29.8325 97.3834 29.6896 97.2597 29.5032C97.1361 29.3149 97.0742 29.0877 97.0742 28.8213C97.0742 28.587 97.1202 28.397 97.212 28.2514C97.3039 28.104 97.4267 27.9886 97.5804 27.9051C97.7342 27.8217 97.9038 27.7595 98.0893 27.7187C98.2766 27.6761 98.4648 27.6424 98.6538 27.6175C98.9012 27.5855 99.1017 27.5616 99.2555 27.5456C99.4109 27.5278 99.524 27.4985 99.5947 27.4577C99.6672 27.4169 99.7034 27.3458 99.7034 27.2446V27.2233C99.7034 26.9605 99.6318 26.7563 99.4887 26.6108C99.3473 26.4652 99.1327 26.3924 98.8447 26.3924C98.5461 26.3924 98.3119 26.4581 98.1423 26.5894C97.9727 26.7208 97.8534 26.8611 97.7845 27.0103L97.1908 26.7972C97.2968 26.5486 97.4382 26.3551 97.6149 26.2166C97.7933 26.0763 97.9877 25.9786 98.198 25.9236C98.41 25.8668 98.6185 25.8384 98.8235 25.8384C98.9542 25.8384 99.1044 25.8544 99.274 25.8863C99.4454 25.9165 99.6106 25.9795 99.7696 26.0754C99.9304 26.1713 100.064 26.316 100.17 26.5095C100.276 26.7031 100.329 26.9623 100.329 27.2872V29.9826H99.7034V29.4286H99.6716C99.6292 29.5174 99.5585 29.6123 99.4595 29.7136C99.3606 29.8148 99.229 29.9009 99.0646 29.9719C98.9003 30.0429 98.6998 30.0784 98.463 30.0784ZM98.5584 29.5138C98.8058 29.5138 99.0143 29.465 99.1839 29.3673C99.3553 29.2697 99.4843 29.1436 99.5709 28.9891C99.6592 28.8347 99.7034 28.6722 99.7034 28.5017V27.9264C99.6769 27.9584 99.6186 27.9877 99.5285 28.0143C99.4401 28.0392 99.3376 28.0614 99.221 28.0809C99.1062 28.0987 98.994 28.1147 98.8844 28.1289C98.7766 28.1413 98.6892 28.1519 98.622 28.1608C98.4595 28.1821 98.3075 28.2168 98.1662 28.2647C98.0266 28.3109 97.9135 28.381 97.8269 28.4751C97.7421 28.5674 97.6997 28.6935 97.6997 28.8533C97.6997 29.0717 97.7801 29.2368 97.9409 29.3487C98.1034 29.4588 98.3093 29.5138 98.5584 29.5138Z" fill="#113453"/>
<path d="M94.4883 29.9827V25.8918H95.0926V26.5097H95.135C95.2092 26.3073 95.3435 26.143 95.5378 26.017C95.7322 25.8909 95.9513 25.8279 96.1951 25.8279C96.2411 25.8279 96.2985 25.8288 96.3674 25.8305C96.4363 25.8323 96.4884 25.835 96.5238 25.8385V26.4777C96.5026 26.4724 96.454 26.4644 96.378 26.4538C96.3038 26.4413 96.2251 26.4351 96.1421 26.4351C95.9442 26.4351 95.7675 26.4769 95.612 26.5603C95.4583 26.642 95.3364 26.7556 95.2463 26.9012C95.1579 27.045 95.1138 27.2093 95.1138 27.3939V29.9827H94.4883Z" fill="#113453"/>
<path d="M91.0115 28.4911L91.0009 27.7134H91.1282L92.9092 25.8917H93.6831L91.7854 27.82H91.7324L91.0115 28.4911ZM90.4285 29.9826V24.5281H91.054V29.9826H90.4285ZM93.0152 29.9826L91.425 27.9585L91.8703 27.5217L93.8103 29.9826H93.0152Z" fill="#113453"/>
<path d="M88.5435 24.5281H89.2008V28.1396C89.2008 28.5125 89.1134 28.8454 88.9384 29.1383C88.7653 29.4295 88.5206 29.6595 88.2043 29.8281C87.888 29.9951 87.517 30.0785 87.0911 30.0785C86.6653 30.0785 86.2943 29.9951 85.978 29.8281C85.6617 29.6595 85.4161 29.4295 85.2412 29.1383C85.068 28.8454 84.9814 28.5125 84.9814 28.1396V24.5281H85.6387V28.0863C85.6387 28.3527 85.697 28.5897 85.8137 28.7974C85.9303 29.0034 86.0964 29.1659 86.3119 29.2848C86.5293 29.402 86.789 29.4606 87.0911 29.4606C87.3933 29.4606 87.653 29.402 87.8703 29.2848C88.0877 29.1659 88.2538 29.0034 88.3686 28.7974C88.4852 28.5897 88.5435 28.3527 88.5435 28.0863V24.5281Z" fill="#113453"/>
<path d="M81.6518 24.5281V29.9826H81.0264V24.5281H81.6518Z" fill="#113453"/>
<path d="M78.0189 30.0784C77.7609 30.0784 77.5268 30.0296 77.3166 29.932C77.1063 29.8325 76.9393 29.6896 76.8157 29.5032C76.692 29.3149 76.6301 29.0877 76.6301 28.8213C76.6301 28.587 76.6761 28.397 76.7679 28.2514C76.8598 28.104 76.9826 27.9886 77.1363 27.9051C77.2901 27.8217 77.4597 27.7595 77.6452 27.7187C77.8325 27.6761 78.0207 27.6424 78.2097 27.6175C78.4571 27.5855 78.6577 27.5616 78.8114 27.5456C78.9669 27.5278 79.0799 27.4985 79.1506 27.4577C79.2231 27.4169 79.2593 27.3458 79.2593 27.2446V27.2233C79.2593 26.9605 79.1877 26.7563 79.0446 26.6108C78.9033 26.4652 78.6886 26.3924 78.4006 26.3924C78.102 26.3924 77.8678 26.4581 77.6982 26.5894C77.5286 26.7208 77.4093 26.8611 77.3404 27.0103L76.7467 26.7972C76.8528 26.5486 76.9941 26.3551 77.1708 26.2166C77.3493 26.0763 77.5436 25.9786 77.7539 25.9236C77.9659 25.8668 78.1744 25.8384 78.3794 25.8384C78.5101 25.8384 78.6603 25.8544 78.8299 25.8863C79.0013 25.9165 79.1665 25.9795 79.3255 26.0754C79.4863 26.1713 79.6197 26.316 79.7257 26.5095C79.8318 26.7031 79.8848 26.9623 79.8848 27.2872V29.9826H79.2593V29.4286H79.2275C79.1851 29.5174 79.1144 29.6123 79.0155 29.7136C78.9165 29.8148 78.7849 29.9009 78.6205 29.9719C78.4562 30.0429 78.2557 30.0784 78.0189 30.0784ZM78.1143 29.5138C78.3617 29.5138 78.5702 29.465 78.7398 29.3673C78.9112 29.2697 79.0402 29.1436 79.1268 28.9891C79.2151 28.8347 79.2593 28.6722 79.2593 28.5017V27.9264C79.2328 27.9584 79.1745 27.9877 79.0844 28.0143C78.996 28.0392 78.8935 28.0614 78.7769 28.0809C78.6621 28.0987 78.5499 28.1147 78.4403 28.1289C78.3325 28.1413 78.2451 28.1519 78.1779 28.1608C78.0154 28.1821 77.8634 28.2168 77.7221 28.2647C77.5825 28.3109 77.4694 28.381 77.3828 28.4751C77.298 28.5674 77.2556 28.6935 77.2556 28.8533C77.2556 29.0717 77.336 29.2368 77.4968 29.3487C77.6594 29.4588 77.8652 29.5138 78.1143 29.5138Z" fill="#113453"/>
<path d="M72.2703 29.9826V24.5281H72.8957V26.5416H72.9488C72.9947 26.4705 73.0583 26.38 73.1396 26.2699C73.2226 26.158 73.341 26.0586 73.4947 25.9716C73.6502 25.8828 73.8605 25.8384 74.1255 25.8384C74.4683 25.8384 74.7704 25.9246 75.0319 26.0968C75.2934 26.269 75.4975 26.5132 75.6442 26.8292C75.7908 27.1453 75.8642 27.5181 75.8642 27.9478C75.8642 28.3811 75.7908 28.7566 75.6442 29.0744C75.4975 29.3905 75.2943 29.6355 75.0346 29.8095C74.7749 29.9817 74.4754 30.0679 74.1361 30.0679C73.8746 30.0679 73.6652 30.0243 73.508 29.9373C73.3507 29.8486 73.2297 29.7482 73.1449 29.6364C73.0601 29.5228 72.9947 29.4286 72.9488 29.3541H72.8745V29.9826H72.2703ZM72.8851 27.9372C72.8851 28.2461 72.9302 28.5187 73.0203 28.7548C73.1104 28.9892 73.2421 29.173 73.4152 29.3061C73.5884 29.4375 73.8004 29.5032 74.0513 29.5032C74.3128 29.5032 74.531 29.434 74.7059 29.2955C74.8826 29.1552 75.0152 28.967 75.1035 28.7308C75.1936 28.4929 75.2387 28.2284 75.2387 27.9372C75.2387 27.6495 75.1945 27.3903 75.1062 27.1595C75.0196 26.9269 74.8879 26.7431 74.7112 26.6082C74.5363 26.4714 74.3163 26.4031 74.0513 26.4031C73.7969 26.4031 73.5831 26.4679 73.4099 26.5975C73.2368 26.7253 73.106 26.9047 73.0177 27.1355C72.9293 27.3645 72.8851 27.6318 72.8851 27.9372Z" fill="#113453"/>
<path d="M69.3859 30.0678C69.0184 30.0678 68.6959 29.9799 68.4185 29.8041C68.1429 29.6283 67.9273 29.3824 67.7718 29.0664C67.6181 28.7503 67.5413 28.381 67.5413 27.9584C67.5413 27.5323 67.6181 27.1603 67.7718 26.8425C67.9273 26.5246 68.1429 26.2778 68.4185 26.1021C68.6959 25.9263 69.0184 25.8384 69.3859 25.8384C69.7534 25.8384 70.075 25.9263 70.3506 26.1021C70.6281 26.2778 70.8436 26.5246 70.9973 26.8425C71.1528 27.1603 71.2306 27.5323 71.2306 27.9584C71.2306 28.381 71.1528 28.7503 70.9973 29.0664C70.8436 29.3824 70.6281 29.6283 70.3506 29.8041C70.075 29.9799 69.7534 30.0678 69.3859 30.0678ZM69.3859 29.5032C69.6651 29.5032 69.8948 29.4312 70.075 29.2874C70.2552 29.1436 70.3886 28.9545 70.4752 28.7201C70.5618 28.4858 70.6051 28.2318 70.6051 27.9584C70.6051 27.685 70.5618 27.4302 70.4752 27.194C70.3886 26.9579 70.2552 26.767 70.075 26.6214C69.8948 26.4758 69.6651 26.403 69.3859 26.403C69.1067 26.403 68.877 26.4758 68.6968 26.6214C68.5166 26.767 68.3832 26.9579 68.2966 27.194C68.21 27.4302 68.1667 27.685 68.1667 27.9584C68.1667 28.2318 68.21 28.4858 68.2966 28.7201C68.3832 28.9545 68.5166 29.1436 68.6968 29.2874C68.877 29.4312 69.1067 29.5032 69.3859 29.5032Z" fill="#113453"/>
<path d="M66.5864 24.5281V29.9826H65.9609V24.5281H66.5864Z" fill="#113453"/>
<path d="M64.2096 26.2327C64.1513 26.0534 64.0745 25.8927 63.9791 25.7507C63.8854 25.6068 63.7732 25.4843 63.6425 25.3831C63.5135 25.2819 63.3668 25.2047 63.2025 25.1514C63.0382 25.0981 62.858 25.0715 62.6618 25.0715C62.3403 25.0715 62.0478 25.155 61.7846 25.3219C61.5213 25.4888 61.3119 25.7347 61.1564 26.0596C61.0009 26.3845 60.9232 26.7832 60.9232 27.2555C60.9232 27.7278 61.0018 28.1264 61.1591 28.4513C61.3163 28.7762 61.5292 29.0222 61.7978 29.1891C62.0664 29.356 62.3685 29.4394 62.7042 29.4394C63.0152 29.4394 63.2891 29.3728 63.5259 29.2397C63.7644 29.1047 63.9499 28.9147 64.0824 28.6697C64.2167 28.4229 64.2839 28.1326 64.2839 27.7988L64.4853 27.8414H62.8527V27.2555H64.9199V27.8414C64.9199 28.2906 64.8245 28.6812 64.6337 29.0133C64.4446 29.3453 64.1831 29.6028 63.8492 29.7856C63.517 29.9668 63.1354 30.0573 62.7042 30.0573C62.2236 30.0573 61.8014 29.9437 61.4374 29.7164C61.0752 29.4891 60.7924 29.166 60.5893 28.7469C60.3878 28.3279 60.2871 27.8307 60.2871 27.2555C60.2871 26.824 60.3445 26.436 60.4594 26.0916C60.576 25.7453 60.7403 25.4506 60.9524 25.2073C61.1644 24.9641 61.4153 24.7777 61.7051 24.648C61.9948 24.5184 62.3138 24.4536 62.6618 24.4536C62.9481 24.4536 63.2149 24.4971 63.4622 24.5841C63.7114 24.6693 63.9331 24.791 64.1275 24.949C64.3236 25.1052 64.4871 25.2926 64.6178 25.511C64.7486 25.7276 64.8387 25.9682 64.8881 26.2327H64.2096Z" fill="#113453"/>
<path d="M54.5639 31.5168C54.4579 31.5168 54.3634 31.508 54.2803 31.4902C54.1973 31.4742 54.1399 31.4583 54.1081 31.4423L54.2671 30.8883C54.419 30.9274 54.5533 30.9416 54.6699 30.9309C54.7865 30.9203 54.8899 30.8679 54.98 30.7738C55.0719 30.6814 55.1558 30.5314 55.2318 30.3237L55.3484 30.0041L53.843 25.8918H54.5215L55.6453 29.1518H55.6877L56.8114 25.8918H57.4899L55.7619 30.5793C55.6841 30.7906 55.5878 30.9655 55.473 31.104C55.3581 31.2443 55.2247 31.3482 55.0728 31.4156C54.9226 31.4831 54.753 31.5168 54.5639 31.5168Z" fill="#113453"/>
<path d="M49.7561 29.9826V24.5281H50.3816V26.5416H50.4346C50.4805 26.4705 50.5441 26.38 50.6254 26.2699C50.7085 26.158 50.8269 26.0586 50.9806 25.9716C51.1361 25.8828 51.3463 25.8384 51.6114 25.8384C51.9541 25.8384 52.2563 25.9246 52.5178 26.0968C52.7793 26.269 52.9834 26.5132 53.13 26.8292C53.2767 27.1453 53.35 27.5181 53.35 27.9478C53.35 28.3811 53.2767 28.7566 53.13 29.0744C52.9834 29.3905 52.7802 29.6355 52.5204 29.8095C52.2607 29.9817 51.9612 30.0679 51.622 30.0679C51.3605 30.0679 51.1511 30.0243 50.9938 29.9373C50.8366 29.8486 50.7155 29.7482 50.6307 29.6364C50.5459 29.5228 50.4805 29.4286 50.4346 29.3541H50.3604V29.9826H49.7561ZM50.371 27.9372C50.371 28.2461 50.416 28.5187 50.5062 28.7548C50.5963 28.9892 50.7279 29.173 50.9011 29.3061C51.0742 29.4375 51.2862 29.5032 51.5371 29.5032C51.7987 29.5032 52.0169 29.434 52.1918 29.2955C52.3685 29.1552 52.501 28.967 52.5893 28.7308C52.6795 28.4929 52.7245 28.2284 52.7245 27.9372C52.7245 27.6495 52.6803 27.3903 52.592 27.1595C52.5054 26.9269 52.3738 26.7431 52.1971 26.6082C52.0222 26.4714 51.8022 26.4031 51.5371 26.4031C51.2827 26.4031 51.0689 26.4679 50.8958 26.5975C50.7226 26.7253 50.5919 26.9047 50.5035 27.1355C50.4152 27.3645 50.371 27.6318 50.371 27.9372Z" fill="#113453"/>
<path d="M21.6466 2.375C21.6466 3.6875 20.8696 4.75 19.9062 4.75C18.9427 4.75 18.1658 3.6875 18.1658 2.375C18.1658 1.0625 18.9427 0 19.9062 0C20.8696 0 21.6466 1.0625 21.6466 2.375Z" fill="#1782CA"/>
<path d="M21.6466 37.625C21.6466 38.9375 20.8696 40 19.9062 40C18.9427 40 18.1658 38.9375 18.1658 37.625C18.1658 36.3125 18.9427 35.25 19.9062 35.25C20.8696 35.25 21.6466 36.3125 21.6466 37.625Z" fill="#FCD34D"/>
<path d="M24.1889 18.4313L22.8649 19.7251C22.2806 18.3001 21.1991 16.3188 20.7329 15.5063C21.4229 14.5501 21.8269 14.1126 21.9388 14.0063C22.3863 14.7126 23.4616 16.5876 24.1827 18.4313H24.1889Z" fill="#1782CA"/>
<path d="M31.5732 12.85C31.5981 13.0875 31.6229 13.3375 31.6291 13.4V13.4438L31.6478 13.5313L33.3571 12.8688C32.8412 8.62504 31.8778 5.24379 31.2686 3.52504C31.1132 3.09379 30.6284 2.89379 30.2182 3.08129C25.3885 5.31254 21.3855 9.31879 19.9062 11.1063C16.2202 6.76254 11.8816 4.12504 9.60038 3.07504C9.18392 2.88129 8.69909 3.10629 8.54991 3.54379C6.99596 7.99379 6.4987 11.5875 6.44897 12.8875L8.1521 13.5875L8.16453 13.475C8.16453 13.4188 8.1894 13.225 8.20804 13.05C8.22669 12.875 8.26399 12.55 8.29506 12.3188C8.32614 12.0875 8.41938 11.475 8.5064 10.9625C8.59342 10.4438 8.72395 9.73754 8.79233 9.39379C8.8607 9.05004 8.9788 8.55004 9.04096 8.28129C9.10312 8.01254 9.27716 7.35629 9.42634 6.81879C9.57552 6.28129 9.7247 5.76879 9.75578 5.67504C9.79307 5.58754 9.82415 5.51254 9.83658 5.51254C9.84901 5.51254 9.98576 5.58129 10.1474 5.67504C10.3028 5.76254 10.5203 5.88129 10.6198 5.93754C10.7254 5.99379 11.0176 6.16879 11.2786 6.32504C11.5397 6.48754 11.8381 6.67504 11.9499 6.74379C12.0618 6.81879 12.211 6.91254 12.2794 6.96254C12.354 7.00629 12.4907 7.10004 12.5964 7.16879C12.7021 7.23754 12.8512 7.34379 12.932 7.40629C13.0128 7.46879 13.0874 7.51879 13.0999 7.51879C13.1123 7.51879 13.3609 7.70629 13.6655 7.93129C13.9701 8.16254 14.4114 8.50004 14.6352 8.69379C14.8652 8.88129 15.2692 9.22504 15.524 9.44379C15.7851 9.66879 16.2388 10.0875 16.5372 10.375C16.8356 10.6688 17.165 10.9938 17.2707 11.1C17.3763 11.2063 17.6063 11.4625 17.7866 11.6625C17.9668 11.8625 18.2528 12.1875 18.4144 12.375C18.6195 12.6125 18.7065 12.7438 18.6879 12.7625C18.6754 12.7875 18.5511 12.9688 18.4082 13.175L18.3895 13.2C18.2403 13.4188 18.0601 13.675 17.9979 13.7688C17.9295 13.8625 17.7369 14.175 17.5566 14.4625C17.3763 14.75 17.0345 15.3438 16.7921 15.7875C16.5559 16.225 16.2326 16.8438 16.0835 17.1625C15.9343 17.4813 15.7602 17.8563 15.6981 18.0063C15.6359 18.1563 15.5489 18.2875 15.5302 18.3L16.9537 19.7438C16.9537 19.7438 16.991 19.675 17.0096 19.6C17.0469 19.4938 17.1277 19.2813 17.1961 19.1313C17.2582 19 17.3515 18.7875 17.4261 18.625L17.4571 18.5563C17.5317 18.3938 17.6933 18.0563 17.8239 17.8063C17.9482 17.5563 18.2155 17.0563 18.4206 16.6938C18.6257 16.325 18.7998 16.0125 18.8122 16C18.8246 15.9813 18.8992 15.8625 18.9738 15.7375C19.0484 15.6125 19.1789 15.4 19.2659 15.2688C19.353 15.1313 19.527 14.8688 19.6513 14.675C19.7135 14.5875 19.8005 14.4563 19.8937 14.3125C20.0056 14.1563 20.1237 13.9813 20.2232 13.8375C20.4159 13.5688 20.6831 13.2 20.8261 13.0188C20.9193 12.9063 21.0001 12.7938 21.1182 12.65C21.1866 12.5688 21.2923 12.4438 21.342 12.3813C21.485 12.2125 21.8641 11.8 22.1749 11.475C22.4919 11.1438 22.8897 10.7313 23.0638 10.5625C23.2378 10.3875 23.5673 10.0813 23.7972 9.86879C24.0272 9.66254 24.3442 9.37504 24.4996 9.24379C24.655 9.10629 25.0404 8.79379 25.345 8.54379C25.6496 8.29379 26.0598 7.97504 26.2463 7.83754C26.4327 7.69379 26.6752 7.52504 26.7746 7.45629C26.8803 7.38129 27.073 7.25004 27.2035 7.16254C27.3402 7.07504 27.5702 6.91254 27.7194 6.81254C27.8686 6.71254 28.2229 6.48754 28.5088 6.31879C28.7947 6.14379 29.1863 5.91254 29.3852 5.80629C29.5841 5.70004 29.7831 5.58754 29.8328 5.55629C29.8825 5.53129 29.9447 5.51254 29.9695 5.52504C30.0006 5.53754 30.0441 5.63129 30.0752 5.74379C30.1063 5.85629 30.2057 6.19379 30.2927 6.50629C30.3798 6.81254 30.4792 7.16254 30.5165 7.28754C30.5414 7.40629 30.5911 7.59379 30.6222 7.71254V7.72504C30.6533 7.83754 30.7341 8.15629 30.7962 8.41879C30.8584 8.68754 30.9578 9.12504 31.0138 9.39379C31.0697 9.66254 31.163 10.1688 31.2313 10.525C31.2935 10.8813 31.3867 11.45 31.4302 11.7938C31.48 12.1375 31.5359 12.6188 31.5608 12.8563L31.5732 12.85Z" fill="#1782CA"/>
<path d="M20.8386 13.025C20.6957 13.2063 20.4284 13.575 20.2357 13.8437C20.1362 13.9875 20.0181 14.1562 19.9062 14.3187C20.1922 14.7 20.5776 15.2687 20.7392 15.5062C21.4291 14.55 21.8331 14.1125 21.945 14.0062C21.771 13.675 21.3359 12.9812 21.1308 12.6562C21.0127 12.8 20.9319 12.9125 20.8386 13.025Z" fill="#1782CA"/>
<path fill-rule="evenodd" clip-rule="evenodd" d="M3.66439 12.2251C0.798913 11.8876 0.0405869 11.8251 0.0468027 15.1126C-0.158318 19.1063 0.289219 23.3563 1.8183 27.0438C4.0622 32.9876 9.50724 36.6313 15.6795 37.3751C18.3647 38.1188 15.7852 36.1376 15.2755 35.1501C14.0199 33.4626 12.5841 31.5938 11.5025 29.8126C8.59973 25.0126 7.72952 19.1251 8.15219 13.5813C6.78472 12.9626 5.17483 12.4001 3.67061 12.2251H3.66439ZM1.87425 14.3813C1.05998 22.2938 3.84465 31.9688 12.2235 34.4126C10.5515 32.0126 8.84215 29.2751 7.92221 26.4188C6.76607 23.1001 6.25638 19.8126 6.27503 16.2313C6.17557 14.8813 6.57338 15.1626 5.80263 14.8938C4.50974 14.4813 3.26658 14.2751 1.89289 14.2313L1.87425 14.3876V14.3813Z" fill="#FCD34D"/>
<path d="M11.4962 17.6627C10.9554 17.2877 10.0293 16.7439 9.39526 16.4064L9.46985 14.1064C13.7401 15.8939 17.2893 19.7252 19.9062 23.4752C21.0188 21.8002 22.6722 19.7627 24.1888 18.4314C25.0528 20.6877 26.0847 23.3064 26.122 25.7564C25.6682 26.8314 25.1461 27.8314 24.5307 28.8252C23.7475 30.1002 22.5354 31.6314 21.5161 32.7377C20.9069 33.3877 19.9186 34.7189 19.067 33.5877C16.8542 31.3814 14.9646 28.6064 13.6904 25.7502C13.5225 24.7689 14.1752 22.9627 14.3057 21.9689C14.6787 22.3127 15.437 23.1127 15.7789 23.4939L15.4557 25.1689C16.6553 27.4002 18.0974 29.8502 19.9 31.6689C21.6777 29.9314 23.157 27.4314 24.3132 25.2439C24.3132 24.4377 23.847 22.6689 23.5673 21.8814C16.9723 30.5439 22.5665 25.5064 11.5086 17.6752L11.4962 17.6627Z" fill="#FCD34D"/>
<path d="M24.6116 19.6125C24.7235 19.9063 24.8168 20.0688 24.9286 20.3938C25.0592 20.2188 25.457 19.8688 25.9915 19.3938C25.9915 19.3938 25.8051 18.8063 25.6497 18.4188C25.5067 18.0625 25.2208 17.4875 25.2208 17.4875L24.189 18.4313C24.189 18.4313 24.2325 18.6063 24.3008 18.7751C24.3692 18.9438 24.4998 19.3188 24.6054 19.6125H24.6116Z" fill="#FCD34D"/>
<path d="M36.9685 12.1376C32.6672 12.5376 28.4964 14.6939 25.2207 17.4814C25.2891 17.5814 25.9728 19.2814 25.9852 19.3876C29.3355 16.6564 33.5188 14.3564 37.8947 14.2626C38.3174 18.8064 37.7579 23.7439 35.5824 27.8126C34.3579 30.0751 32.3813 32.1064 30.1125 33.3189C29.6028 33.5314 26.5819 35.2189 27.9556 33.8064C31.884 28.4751 33.9166 21.7626 33.4131 15.1001C32.7791 15.3001 32.201 15.5314 31.6105 15.7751C32.0767 20.0564 30.8957 24.6626 29.0185 28.5064C27.7505 30.9689 25.8609 33.3251 24.2262 35.5751C23.9216 36.2564 21.5658 38.0564 23.9216 37.4064C31.8964 36.5001 37.559 31.2314 39.1378 23.3314C39.8091 20.4376 39.9459 17.0439 39.6724 14.1001C39.6786 11.8126 38.6592 12.1126 36.981 12.1376H36.9685Z" fill="#FCD34D"/>
<path d="M15.4992 21.0188C15.3314 20.8438 15.0579 20.5437 14.9025 20.3875C14.8465 20.3312 14.7471 20.2625 14.6663 20.1875L14.2996 21.9688L14.9211 22.625L15.7727 23.4938L16.1892 21.7438C15.9343 21.4625 15.667 21.1875 15.5054 21.0188H15.4992Z" fill="#FCD34D"/>
<path d="M8.12746 13.7813C8.12124 13.8938 8.09638 14.2438 8.08395 14.5563C8.07151 14.8188 8.05908 15.3438 8.05908 15.8188C8.35744 15.9375 9.07847 16.2563 9.40169 16.4063L9.47628 14.1063C9.14685 13.9625 8.45689 13.7 8.15232 13.5813L8.13367 13.7813H8.12746Z" fill="#FCD34D"/>
</svg>
