<svg width="176" height="48" viewBox="0 0 176 48" fill="none" xmlns="http://www.w3.org/2000/svg">
<g clip-path="url(#clip0_297_14474)">
<mask id="mask0_297_14474" style="mask-type:luminance" maskUnits="userSpaceOnUse" x="0" y="0" width="48" height="48">
<circle cx="24" cy="24" r="24" fill="white"/>
</mask>
<g mask="url(#mask0_297_14474)">
<path d="M96 0H0V48H96V0Z" fill="#00732F"/>
<path d="M96 16H0V48H96V16Z" fill="white"/>
<path d="M96 32H0V48H96V32Z" fill="black"/>
<path d="M19.5 0H0V48H19.5V0Z" fill="#FF0000"/>
</g>
</g>
<g clip-path="url(#clip1_297_14474)">
<mask id="mask1_297_14474" style="mask-type:luminance" maskUnits="userSpaceOnUse" x="32" y="0" width="48" height="48">
<path d="M80 0H32V48H80V0Z" fill="white"/>
</mask>
<g mask="url(#mask1_297_14474)">
<mask id="mask2_297_14474" style="mask-type:luminance" maskUnits="userSpaceOnUse" x="32" y="0" width="48" height="48">
<path d="M80 0H32V48H80V0Z" fill="white"/>
</mask>
<g mask="url(#mask2_297_14474)">
<path d="M56 48C69.2548 48 80 37.2548 80 24C80 10.7452 69.2548 0 56 0C42.7452 0 32 10.7452 32 24C32 37.2548 42.7452 48 56 48Z" fill="#1E5B00"/>
<path d="M60.9938 25.6382L62.4596 24.6855V22.7067L60.9938 21.7539L64.878 15.891H58.8685L58.5021 12.9594L57.0362 10.0279L55.0576 9.0752H52.126L49.1945 10.0279L44.2843 13.9122L41.3527 14.8649L40.4 16.8437L41.3527 17.7964H43.3315L45.3103 14.8649V17.7964L46.263 18.7491H48.2418V16.7704L47.2891 13.8389L50.2206 11.4204H54.1049L55.5706 12.8862L55.0576 15.8177H49.1945L53.0787 21.6807L51.613 22.6334V24.6122L53.0787 25.5649L54.7644 29.8889L51.1 30.9149V32.3807L54.9843 31.3546L55.2041 33.8464H52.0528V35.3121H55.3507L55.4973 36.7779H53.0787V38.2437H55.4973V41.1752H58.4287V38.2437H60.8473V36.7779H58.4287L58.5754 35.3121H61.8733V33.8464H58.7219L58.9418 31.4279L62.826 32.3807V30.9149L59.1616 29.9622L60.8473 25.5649L60.9938 25.6382ZM55.1309 24.9053C54.4712 24.9053 53.8849 24.3923 53.8849 23.6595C53.8849 22.9266 54.398 22.4136 55.1309 22.4136C55.8638 22.4136 56.3767 22.9266 56.3767 23.6595C56.3767 24.3923 55.8638 24.9053 55.1309 24.9053ZM57.8425 23.6595C57.8425 22.9998 58.3555 22.4136 59.0884 22.4136C59.8213 22.4136 60.3342 22.9266 60.3342 23.6595C60.3342 24.3923 59.8213 24.9053 59.0884 24.9053C58.3555 24.9053 57.8425 24.3923 57.8425 23.6595Z" fill="#FFD400"/>
</g>
</g>
</g>
<g clip-path="url(#clip2_297_14474)">
<mask id="mask3_297_14474" style="mask-type:luminance" maskUnits="userSpaceOnUse" x="64" y="0" width="48" height="48">
<circle cx="88" cy="24" r="24" fill="white"/>
</mask>
<g mask="url(#mask3_297_14474)">
<path d="M40 0V48H136V0H40Z" fill="#012169"/>
<path d="M40 0L136 48L40 0ZM136 0L40 48L136 0Z" fill="black"/>
<path fill-rule="evenodd" clip-rule="evenodd" d="M81.2918 23.9999L38.6583 2.68321L41.3416 -2.68335L88 20.6458L134.658 -2.68335L137.342 2.68321L94.7082 23.9999L137.342 45.3167L134.658 50.6832L88 27.354L41.3416 50.6832L38.6583 45.3167L81.2918 23.9999Z" fill="white"/>
<path d="M40 0L136 48L40 0ZM136 0L40 48L136 0Z" fill="black"/>
<path fill-rule="evenodd" clip-rule="evenodd" d="M84.6458 23.9998L39.3291 1.34148L40.6707 -1.3418L87.9999 22.3228L135.329 -1.3418L136.671 1.34148L91.354 23.9998L136.671 46.6582L135.329 49.3415L87.9999 25.6769L40.6707 49.3415L39.3291 46.6582L84.6458 23.9998Z" fill="#C8102E"/>
<path d="M88 0V48V0ZM40 24H136H40Z" fill="black"/>
<path fill-rule="evenodd" clip-rule="evenodd" d="M82.75 18.75V0H93.25V18.75H136V29.25H93.25V48H82.75V29.25H40V18.75H82.75Z" fill="white"/>
<path d="M88 0V48V0ZM40 24H136H40Z" fill="black"/>
<path fill-rule="evenodd" clip-rule="evenodd" d="M84.25 20.25V0H91.75V20.25H136V27.75H91.75V48H84.25V27.75H40V20.25H84.25Z" fill="#C8102E"/>
</g>
</g>
<g clip-path="url(#clip3_297_14474)">
<mask id="mask4_297_14474" style="mask-type:luminance" maskUnits="userSpaceOnUse" x="96" y="0" width="48" height="48">
<circle cx="120" cy="24" r="24" fill="white"/>
</mask>
<g mask="url(#mask4_297_14474)">
<path d="M166.2 0H75V48H166.2V0Z" fill="#B22234"/>
<path fill-rule="evenodd" clip-rule="evenodd" d="M166.2 7.03833H75V4.03833H166.2V7.03833ZM75 11.4229H166.2V14.4229H75V11.4229ZM166.2 21.8076H75V18.8076H166.2V21.8076ZM75 26.1922H166.2V29.1922H75V26.1922ZM166.2 36.5768H75V33.5768H166.2V36.5768ZM75 40.9614H166.2V43.9614H75V40.9614Z" fill="white"/>
<path d="M117 0H84V26.125H117V0Z" fill="#3C3B6E"/>
<path d="M97.6626 1.01538L98.4584 3.46451L96.375 1.95087H98.9502L96.8668 3.46451L97.6626 1.01538Z" fill="white"/>
<path d="M103.16 1.01514L103.956 3.46427L101.873 1.95062H104.448L102.364 3.46427L103.16 1.01514Z" fill="white"/>
<path d="M108.665 1.01514L109.461 3.46427L107.377 1.95062H109.953L107.869 3.46427L108.665 1.01514Z" fill="white"/>
<path d="M114.163 1.01538L114.958 3.46451L112.875 1.95087H115.45L113.367 3.46451L114.163 1.01538Z" fill="white"/>
<path d="M94.9101 4.125L95.7059 6.57413L93.6226 5.06048H96.1977L94.1144 6.57413L94.9101 4.125Z" fill="white"/>
<path d="M100.415 4.125L101.211 6.57413L99.1274 5.06048H101.703L99.6193 6.57413L100.415 4.125Z" fill="white"/>
<path d="M105.913 4.125L106.708 6.57413L104.625 5.06048H107.2L105.117 6.57413L105.913 4.125Z" fill="white"/>
<path d="M111.41 4.125L112.206 6.57413L110.123 5.06048H112.698L110.614 6.57413L111.41 4.125Z" fill="white"/>
<path d="M97.6626 6.875L98.4584 9.32413L96.375 7.81048H98.9502L96.8668 9.32413L97.6626 6.875Z" fill="white"/>
<path d="M103.16 6.87476L103.956 9.32389L101.873 7.81024H104.448L102.364 9.32389L103.16 6.87476Z" fill="white"/>
<path d="M108.665 6.87476L109.461 9.32389L107.377 7.81024H109.953L107.869 9.32389L108.665 6.87476Z" fill="white"/>
<path d="M114.163 6.875L114.958 9.32413L112.875 7.81048H115.45L113.367 9.32413L114.163 6.875Z" fill="white"/>
<path d="M94.9101 9.98438L95.7059 12.4335L93.6226 10.9199H96.1977L94.1144 12.4335L94.9101 9.98438Z" fill="white"/>
<path d="M100.415 9.98438L101.211 12.4335L99.1274 10.9199H101.703L99.6193 12.4335L100.415 9.98438Z" fill="white"/>
<path d="M105.913 9.98462L106.708 12.4337L104.625 10.9201H107.2L105.117 12.4337L105.913 9.98462Z" fill="white"/>
<path d="M111.41 9.98438L112.206 12.4335L110.123 10.9199H112.698L110.614 12.4335L111.41 9.98438Z" fill="white"/>
<path d="M97.6626 12.375L98.4584 14.8241L96.375 13.3105H98.9502L96.8668 14.8241L97.6626 12.375Z" fill="white"/>
<path d="M103.16 12.375L103.956 14.8241L101.873 13.3105H104.448L102.364 14.8241L103.16 12.375Z" fill="white"/>
<path d="M108.665 12.375L109.461 14.8241L107.377 13.3105H109.953L107.869 14.8241L108.665 12.375Z" fill="white"/>
<path d="M114.163 12.375L114.958 14.8241L112.875 13.3105H115.45L113.367 14.8241L114.163 12.375Z" fill="white"/>
<path d="M94.9101 15.4849L95.7059 17.934L93.6226 16.4203H96.1977L94.1144 17.934L94.9101 15.4849Z" fill="white"/>
<path d="M100.415 15.4849L101.211 17.934L99.1274 16.4203H101.703L99.6193 17.934L100.415 15.4849Z" fill="white"/>
<path d="M105.913 15.4846L106.708 17.9337L104.625 16.4201H107.2L105.117 17.9337L105.913 15.4846Z" fill="white"/>
<path d="M111.41 15.4849L112.206 17.934L110.123 16.4203H112.698L110.614 17.934L111.41 15.4849Z" fill="white"/>
<path d="M97.6626 17.875L98.4584 20.3241L96.375 18.8105H98.9502L96.8668 20.3241L97.6626 17.875Z" fill="white"/>
<path d="M103.16 17.8752L103.956 20.3244L101.873 18.8107H104.448L102.364 20.3244L103.16 17.8752Z" fill="white"/>
<path d="M108.665 17.8752L109.461 20.3244L107.377 18.8107H109.953L107.869 20.3244L108.665 17.8752Z" fill="white"/>
<path d="M114.163 17.875L114.958 20.3241L112.875 18.8105H115.45L113.367 20.3241L114.163 17.875Z" fill="white"/>
<path d="M97.6626 23.375L98.4584 25.8241L96.375 24.3105H98.9502L96.8668 25.8241L97.6626 23.375Z" fill="white"/>
<path d="M103.16 23.3748L103.956 25.8239L101.873 24.3102H104.448L102.364 25.8239L103.16 23.3748Z" fill="white"/>
<path d="M108.665 23.3748L109.461 25.8239L107.377 24.3102H109.953L107.869 25.8239L108.665 23.3748Z" fill="white"/>
<path d="M114.163 23.375L114.958 25.8241L112.875 24.3105H115.45L113.367 25.8241L114.163 23.375Z" fill="white"/>
<path d="M94.9101 20.9849L95.7059 23.434L93.6226 21.9203H96.1977L94.1144 23.434L94.9101 20.9849Z" fill="white"/>
<path d="M100.415 20.9849L101.211 23.434L99.1274 21.9203H101.703L99.6193 23.434L100.415 20.9849Z" fill="white"/>
<path d="M105.913 20.9846L106.708 23.4337L104.625 21.9201H107.2L105.117 23.4337L105.913 20.9846Z" fill="white"/>
<path d="M111.41 20.9849L112.206 23.434L110.123 21.9203H112.698L110.614 23.434L111.41 20.9849Z" fill="white"/>
</g>
</g>
<mask id="mask5_297_14474" style="mask-type:luminance" maskUnits="userSpaceOnUse" x="128" y="0" width="48" height="48">
<circle cx="152" cy="24" r="24" fill="white"/>
</mask>
<g mask="url(#mask5_297_14474)">
<path d="M188 0H116V48H188V0Z" fill="#003399"/>
<path fill-rule="evenodd" clip-rule="evenodd" d="M149.539 7.78973L150.995 8.90465L150.544 10.709L152 9.57946L153.456 10.6944L152.888 8.88998L154.345 7.77506H152.583L152 6L151.417 7.78973H149.539ZM152 37.291L151.417 39.0954H149.539L150.995 40.2103L150.544 42L152 40.8998L153.456 42L152.888 40.2103L154.345 39.0954H152.583L152 37.291ZM136.461 21.6381L135.879 23.4425H134L135.529 24.5575L134.947 26.3619L136.403 25.2469L137.859 26.3619L137.437 24.5575L138.893 23.4425H137.044L136.461 21.6381ZM142.709 12.8362L144.238 11.7213L145.694 12.8362L145.17 11.0465L146.626 9.93154H144.82L144.238 8.11247L143.655 9.91687H141.806L143.262 11.0465L142.709 12.8362ZM140.073 18.5281L139.49 16.7384L140.947 15.6235H139.126L138.544 13.8191L137.961 15.6235H136.083L137.539 16.7384L136.956 18.5281L138.413 17.4279L140.073 18.5281ZM138.617 29.4719L139.199 31.2616H141.005L139.549 32.3765L140.131 34.1809L138.675 33.066L137.218 34.1809L137.801 32.3765L136.345 31.2616H137.961L138.617 29.4719ZM146.772 36.9976H144.82L144.238 35.1932L143.655 36.9976H141.806L143.262 38.1125L142.68 39.9169L144.209 38.802L145.665 39.9169L145.083 38.1125L146.772 36.9976ZM167.539 21.6381L168.121 23.4425H170L168.471 24.5575L169.053 26.3619L167.597 25.2469L166.068 26.3619L166.65 24.5575L165.194 23.4425H167.073L167.539 21.6381ZM161.291 12.8362L159.762 11.7213L158.306 12.8362L158.83 11.0465L157.301 9.93154H159.18L159.762 8.11247L160.345 9.91687H162.194L160.738 11.0465L161.291 12.8362ZM163.927 18.5575L164.51 16.7677L163.053 15.6528H164.932L165.515 13.8484L166.097 15.6528H167.976L166.447 16.7677L167.029 18.5575L165.573 17.4572L163.927 18.5575ZM165.383 29.5012L164.801 31.291H162.995L164.451 32.4059L163.869 34.2103L165.325 33.0954L166.782 34.2103L166.199 32.4059L167.728 31.291H166.039L165.383 29.5012ZM159.689 35.2225L159.107 37.0269H157.301L158.83 38.1418L158.248 39.9462L159.704 38.8313L161.233 39.9462L160.738 38.1125L162.194 36.9976H160.345L159.689 35.2225Z" fill="#FFCC00"/>
</g>
<defs>
<clipPath id="clip0_297_14474">
<rect width="48" height="48" fill="white"/>
</clipPath>
<clipPath id="clip1_297_14474">
<rect width="48" height="48" fill="white" transform="translate(32)"/>
</clipPath>
<clipPath id="clip2_297_14474">
<rect width="48" height="48" fill="white" transform="translate(64)"/>
</clipPath>
<clipPath id="clip3_297_14474">
<rect width="48" height="48" fill="white" transform="translate(96)"/>
</clipPath>
</defs>
</svg>
