<svg width="73" height="62" viewBox="0 0 73 62" fill="none" xmlns="http://www.w3.org/2000/svg">
<g opacity="0.1">
<path d="M38.0386 4.15625C38.0386 6.45312 36.5655 8.3125 34.739 8.3125C32.9125 8.3125 31.4395 6.45312 31.4395 4.15625C31.4395 1.85938 32.9125 0 34.739 0C36.5655 0 38.0386 1.85938 38.0386 4.15625Z" fill="white"/>
<path d="M38.0386 65.8438C38.0386 68.1406 36.5655 70 34.739 70C32.9125 70 31.4395 68.1406 31.4395 65.8438C31.4395 63.5469 32.9125 61.6875 34.739 61.6875C36.5655 61.6875 38.0386 63.5469 38.0386 65.8438Z" fill="white"/>
<path d="M42.8586 32.2545L40.3486 34.5186C39.2409 32.0248 37.1904 28.5576 36.3066 27.1357C37.6147 25.4623 38.3806 24.6967 38.5928 24.5107C39.4412 25.7467 41.4799 29.0279 42.8468 32.2545H42.8586Z" fill="white"/>
<path d="M56.8579 22.4876C56.905 22.9032 56.9522 23.3407 56.964 23.4501V23.5267L56.9993 23.6798L60.2399 22.5204C59.2619 15.0939 57.4353 9.17666 56.2805 6.16885C55.9859 5.41416 55.0667 5.06416 54.289 5.39229C45.1327 9.29698 37.5438 16.3079 34.7391 19.436C27.7512 11.8345 19.5259 7.21885 15.2011 5.38135C14.4116 5.04229 13.4924 5.43604 13.2096 6.20166C10.2636 13.9892 9.32084 20.2782 9.22656 22.5532L12.4554 23.7782L12.479 23.5814C12.479 23.4829 12.5261 23.1439 12.5615 22.8376C12.5968 22.5313 12.6675 21.9626 12.7264 21.5579C12.7854 21.1532 12.9621 20.0814 13.1271 19.1845C13.2921 18.2767 13.5395 17.0407 13.6692 16.4392C13.7988 15.8376 14.0227 14.9626 14.1405 14.4923C14.2584 14.022 14.5883 12.8735 14.8711 11.9329C15.154 10.9923 15.4368 10.0954 15.4957 9.93135C15.5664 9.77823 15.6253 9.64698 15.6489 9.64698C15.6725 9.64698 15.9317 9.76729 16.2381 9.93135C16.5327 10.0845 16.9451 10.2923 17.1337 10.3907C17.334 10.4892 17.8879 10.7954 18.3828 11.0689C18.8777 11.3532 19.4434 11.6814 19.6555 11.8017C19.8676 11.9329 20.1504 12.097 20.2801 12.1845C20.4215 12.261 20.6807 12.4251 20.881 12.5454C21.0814 12.6657 21.3642 12.8517 21.5174 12.961C21.6706 13.0704 21.812 13.1579 21.8356 13.1579C21.8591 13.1579 22.3305 13.486 22.9079 13.8798C23.4853 14.2845 24.322 14.8751 24.7462 15.2142C25.1822 15.5423 25.9482 16.1439 26.4314 16.5267C26.9263 16.9204 27.7865 17.6532 28.3522 18.1564C28.9178 18.6704 29.5424 19.2392 29.7427 19.4251C29.943 19.611 30.379 20.0595 30.7208 20.4095C31.0625 20.7595 31.6046 21.3282 31.911 21.6564C32.2998 22.072 32.4648 22.3017 32.4295 22.3345C32.4059 22.3782 32.1702 22.6954 31.8992 23.0564L31.8638 23.1001C31.581 23.4829 31.2393 23.9314 31.1214 24.0954C30.9918 24.2595 30.6265 24.8064 30.2848 25.3095C29.943 25.8126 29.2949 26.8517 28.8353 27.6282C28.3875 28.3939 27.7747 29.4767 27.4919 30.0345C27.2091 30.5923 26.8791 31.2485 26.7613 31.511C26.6435 31.7735 26.4785 32.0032 26.4431 32.0251L29.1417 34.5517C29.1417 34.5517 29.2124 34.4314 29.2478 34.3001C29.3185 34.1142 29.4717 33.7423 29.6013 33.4798C29.7191 33.2501 29.8959 32.8782 30.0373 32.5939L30.0962 32.4735C30.2376 32.1892 30.544 31.5985 30.7915 31.161C31.0272 30.7235 31.5339 29.8485 31.9227 29.2142C32.3116 28.5688 32.6416 28.022 32.6651 28.0001C32.6887 27.9673 32.8301 27.7595 32.9715 27.5407C33.1129 27.322 33.3604 26.9501 33.5254 26.7204C33.6904 26.4798 34.0203 26.0204 34.256 25.6814C34.3738 25.5282 34.5388 25.2985 34.7156 25.047C34.9277 24.7735 35.1516 24.4673 35.3401 24.2157C35.7054 23.7454 36.2122 23.1001 36.4832 22.7829C36.66 22.586 36.8131 22.3892 37.037 22.1376C37.1667 21.9954 37.367 21.7767 37.4613 21.6673C37.7323 21.372 38.4511 20.6501 39.0403 20.0814C39.6413 19.5017 40.3955 18.7798 40.7255 18.4845C41.0554 18.1782 41.68 17.6423 42.116 17.2704C42.552 16.9095 43.153 16.4064 43.4476 16.1767C43.7422 15.936 44.4728 15.3892 45.0502 14.9517C45.6277 14.5142 46.4054 13.9564 46.7589 13.7157C47.1125 13.4642 47.572 13.1689 47.7606 13.0485C47.9609 12.9173 48.3262 12.6876 48.5737 12.5345C48.8329 12.3814 49.2689 12.097 49.5518 11.922C49.8346 11.747 50.5063 11.3532 51.0483 11.0579C51.5904 10.7517 52.3328 10.347 52.7099 10.161C53.087 9.9751 53.4641 9.77823 53.5584 9.72354C53.6526 9.67979 53.7705 9.64698 53.8176 9.66885C53.8765 9.69073 53.959 9.85479 54.0179 10.0517C54.0769 10.2485 54.2654 10.8392 54.4304 11.386C54.5954 11.922 54.7839 12.5345 54.8546 12.7532C54.9017 12.961 54.996 13.2892 55.0549 13.497V13.5189C55.1139 13.7157 55.2671 14.2735 55.3849 14.7329C55.5027 15.2032 55.6913 15.9689 55.7973 16.4392C55.9034 16.9095 56.0802 17.7954 56.2098 18.4189C56.3276 19.0423 56.5044 20.0376 56.5869 20.6392C56.6811 21.2407 56.7872 22.0829 56.8343 22.4985L56.8579 22.4876Z" fill="white"/>
<path d="M36.5069 22.7938C36.2358 23.1109 35.7291 23.7562 35.3638 24.2266C35.1753 24.4781 34.9514 24.7734 34.7393 25.0578C35.2813 25.725 36.0119 26.7203 36.3183 27.1359C37.6264 25.4625 38.3923 24.6969 38.6044 24.5109C38.2745 23.9312 37.4496 22.7172 37.0607 22.1484C36.8368 22.4 36.6836 22.5969 36.5069 22.7938Z" fill="white"/>
<path fill-rule="evenodd" clip-rule="evenodd" d="M3.94733 21.3937C-1.48515 20.8031 -2.92281 20.6937 -2.91103 26.4469C-3.2999 33.4359 -2.45145 40.8734 0.447445 47.3265C4.70151 57.7281 15.0244 64.1047 26.726 65.4062C31.8167 66.7078 26.9263 63.2406 25.96 61.5125C23.5796 58.5594 20.8575 55.289 18.8071 52.1719C13.3039 43.7719 11.6541 33.4687 12.4555 23.7672C9.86295 22.6844 6.81086 21.7 3.95911 21.3937H3.94733ZM0.553502 25.1672C-0.990216 39.014 4.28906 55.9453 20.174 60.2219C17.0041 56.0219 13.7635 51.2312 12.0194 46.2328C9.82759 40.425 8.8613 34.6719 8.89665 28.4047C8.70811 26.0422 9.46229 26.5344 8.00106 26.064C5.54996 25.3422 3.19314 24.9812 0.588854 24.9047L0.553502 25.1781V25.1672Z" fill="white"/>
<path d="M18.7953 30.9092C17.7701 30.253 16.0142 29.3014 14.8123 28.7108L14.9537 24.6858C23.0493 27.8139 29.7781 34.5186 34.7392 41.0811C36.8485 38.1499 39.9831 34.5842 42.8584 32.2545C44.4964 36.203 46.4526 40.7858 46.5233 45.0733C45.663 46.9545 44.6732 48.7045 43.5066 50.4436C42.0218 52.6749 39.7239 55.3545 37.7913 57.2905C36.6364 58.428 34.7627 60.7577 33.1483 58.778C28.9532 54.917 25.3708 50.0608 22.9551 45.0624C22.6369 43.3452 23.8742 40.1842 24.1217 38.4452C24.8287 39.0467 26.2664 40.4467 26.9145 41.1139L26.3018 44.0452C28.5761 47.9499 31.31 52.2374 34.7274 55.4202C38.0976 52.3795 40.9023 48.0045 43.0941 44.1764C43.0941 42.7655 42.2103 39.6702 41.68 38.292C29.1771 53.4514 39.7828 44.6358 18.8189 30.9311L18.7953 30.9092Z" fill="white"/>
<path d="M43.6597 34.3218C43.8718 34.8358 44.0486 35.1202 44.2607 35.689C44.5082 35.3827 45.2624 34.7702 46.2758 33.939C46.2758 33.939 45.9223 32.9108 45.6277 32.2327C45.3566 31.6093 44.8146 30.603 44.8146 30.603L42.8584 32.2546C42.8584 32.2546 42.9409 32.5608 43.0705 32.8562C43.2001 33.1515 43.4476 33.8077 43.6479 34.3218H43.6597Z" fill="white"/>
<path d="M67.0868 21.2407C58.9322 21.9407 51.025 25.7141 44.8148 30.5922C44.9444 30.7672 46.2407 33.7422 46.2643 33.9282C52.6159 29.1485 60.5466 25.1235 68.8426 24.9594C69.6439 32.911 68.5834 41.5516 64.4589 48.6719C62.1374 52.6313 58.3901 56.186 54.0889 58.3079C53.1226 58.6797 47.3955 61.6329 49.9998 59.161C57.4474 49.8313 61.3008 38.0844 60.3463 26.4251C59.1443 26.7751 58.0484 27.1797 56.9289 27.6063C57.8127 35.0985 55.5737 43.1594 52.0149 49.886C49.6109 54.1954 46.0286 58.3188 42.9294 62.2563C42.3519 63.4485 37.8858 66.5985 42.3519 65.461C57.4709 63.8751 68.2063 54.6548 71.1994 40.8297C72.4721 35.7657 72.7314 29.8266 72.2129 24.6751C72.2246 20.6719 70.292 21.1969 67.1103 21.2407H67.0868Z" fill="white"/>
<path d="M26.3837 36.7828C26.0655 36.4766 25.547 35.9516 25.2524 35.6781C25.1464 35.5797 24.9578 35.4594 24.8046 35.3281L24.1094 38.4453L25.2878 39.5938L26.9022 41.1141L27.6917 38.0516C27.2086 37.5594 26.7019 37.0781 26.3955 36.7828H26.3837Z" fill="white"/>
<path d="M12.4089 24.1171C12.3971 24.314 12.35 24.9265 12.3264 25.4733C12.3029 25.9327 12.2793 26.8515 12.2793 27.6827C12.8449 27.8905 14.2119 28.4483 14.8247 28.7108L14.9661 24.6858C14.3415 24.4343 13.0335 23.9749 12.4561 23.7671L12.4207 24.1171H12.4089Z" fill="white"/>
</g>
</svg>
