<svg width="114" height="85" viewBox="0 0 114 85" fill="none" xmlns="http://www.w3.org/2000/svg">
<g opacity="0.1">
<path d="M50.6811 8.19375C50.6811 12.7219 48.0005 16.3875 44.6766 16.3875C41.3527 16.3875 38.6721 12.7219 38.6721 8.19375C38.6721 3.66563 41.3527 0 44.6766 0C48.0005 0 50.6811 3.66563 50.6811 8.19375Z" fill="white"/>
<path d="M59.451 63.5878L54.8834 68.0512C52.8676 63.135 49.1363 56.2997 47.5279 53.4965C49.9083 50.1975 51.3021 48.6881 51.6881 48.3215C53.2322 50.7581 56.942 57.2268 59.4296 63.5878H59.451Z" fill="white"/>
<path d="M84.9286 44.3326C85.0144 45.1519 85.1002 46.0144 85.1216 46.2301V46.381L85.186 46.6829L91.0832 44.3972C89.3033 29.7563 85.9794 18.091 83.8779 12.1613C83.3418 10.6735 81.6691 9.98349 80.2537 10.6304C63.5914 18.3282 49.7811 32.1497 44.6774 38.3166C31.9608 23.3307 16.9925 14.2313 9.12241 10.6088C7.68563 9.94037 6.01296 10.7166 5.49829 12.226C0.137175 27.5785 -1.57838 39.9769 -1.74994 44.4619L4.12585 46.8769L4.16874 46.4888C4.16874 46.2947 4.25451 45.6263 4.31885 45.0226C4.38318 44.4188 4.51185 43.2976 4.61907 42.4997C4.72629 41.7019 5.04796 39.5888 5.34818 37.8207C5.6484 36.031 6.09874 33.5944 6.33463 32.4085C6.57052 31.2226 6.97796 29.4976 7.19241 28.5704C7.40685 27.6432 8.0073 25.3791 8.52197 23.5247C9.03663 21.6704 9.5513 19.9022 9.65852 19.5788C9.78719 19.2769 9.89441 19.0182 9.9373 19.0182C9.98019 19.0182 10.452 19.2554 11.0095 19.5788C11.5456 19.8807 12.2962 20.2904 12.6393 20.4844C13.0039 20.6785 14.0118 21.2822 14.9124 21.8213C15.8131 22.3819 16.8424 23.0288 17.2284 23.266C17.6144 23.5247 18.1291 23.8482 18.365 24.0207C18.6223 24.1716 19.0941 24.4951 19.4587 24.7322C19.8232 24.9694 20.3379 25.336 20.6166 25.5516C20.8954 25.7672 21.1528 25.9397 21.1957 25.9397C21.2385 25.9397 22.0963 26.5866 23.1471 27.3629C24.1979 28.1607 25.7204 29.3251 26.4924 29.9935C27.2859 30.6404 28.6798 31.8263 29.559 32.581C30.4597 33.3572 32.0251 34.8019 33.0544 35.7938C34.0838 36.8072 35.2203 37.9285 35.5849 38.2951C35.9495 38.6616 36.7429 39.5457 37.3648 40.2357C37.9867 40.9257 38.9731 42.0469 39.5307 42.6938C40.2383 43.5132 40.5386 43.966 40.4742 44.0307C40.4313 44.1169 40.0025 44.7422 39.5092 45.4538L39.4449 45.5401C38.9302 46.2948 38.3083 47.1788 38.0939 47.5022C37.858 47.8257 37.1932 48.9038 36.5713 49.8957C35.9495 50.8876 34.77 52.936 33.9337 54.4669C33.1188 55.9763 32.0037 58.111 31.489 59.2107C30.9743 60.3104 30.3739 61.6041 30.1594 62.1216C29.945 62.6391 29.6448 63.0919 29.5804 63.1351L34.4912 68.116C34.4912 68.116 34.6199 67.8788 34.6842 67.6201C34.8129 67.2535 35.0917 66.5204 35.3276 66.0029C35.542 65.5501 35.8637 64.8169 36.121 64.2563L36.2282 64.0191C36.4856 63.4585 37.0431 62.2941 37.4935 61.4316C37.9223 60.5691 38.8445 58.8441 39.5521 57.5935C40.2598 56.3213 40.8602 55.2432 40.9031 55.2001C40.946 55.1354 41.2034 54.7257 41.4607 54.2944C41.718 53.8632 42.1684 53.1301 42.4686 52.6772C42.7688 52.2029 43.3692 51.2972 43.7981 50.6288C44.0126 50.3269 44.3128 49.8741 44.6345 49.3782C45.0205 48.8391 45.4279 48.2354 45.771 47.7394C46.4358 46.8122 47.3579 45.5401 47.8511 44.9147C48.1728 44.5266 48.4516 44.1385 48.859 43.6426C49.0949 43.3622 49.4595 42.931 49.631 42.7154C50.1243 42.1332 51.4324 40.7101 52.5046 39.5888C53.5983 38.446 54.9707 37.0229 55.5712 36.4407C56.1716 35.8369 57.3082 34.7804 58.1016 34.0472C58.895 33.3357 59.9887 32.3438 60.5248 31.891C61.0609 31.4166 62.3905 30.3385 63.4413 29.476C64.4921 28.6135 65.9074 27.5138 66.5507 27.0394C67.1941 26.5435 68.0304 25.9613 68.3735 25.7241C68.7381 25.4654 69.4028 25.0126 69.8532 24.7107C70.325 24.4088 71.1184 23.8482 71.6331 23.5032C72.1477 23.1582 73.3701 22.3819 74.3565 21.7997C75.343 21.196 76.694 20.3982 77.3802 20.0316C78.0664 19.6651 78.7526 19.2769 78.9242 19.1691C79.0957 19.0829 79.3102 19.0182 79.396 19.0613C79.5032 19.1044 79.6533 19.4279 79.7605 19.816C79.8677 20.2041 80.2109 21.3685 80.5111 22.4466C80.8113 23.5032 81.1544 24.7107 81.2831 25.1419C81.3689 25.5516 81.5404 26.1985 81.6476 26.6082V26.6513C81.7549 27.0394 82.0336 28.1391 82.2481 29.0447C82.4625 29.9719 82.8056 31.4813 82.9986 32.4085C83.1916 33.3357 83.5133 35.0822 83.7492 36.3113C83.9636 37.5404 84.2853 39.5026 84.4354 40.6885C84.607 41.8744 84.8 43.5347 84.8857 44.3541L84.9286 44.3326Z" fill="white"/>
<path d="M47.892 44.9363C47.3987 45.5616 46.4766 46.8337 45.8119 47.7609C45.4687 48.2569 45.0613 48.8391 44.6753 49.3997C45.6617 50.715 46.9913 52.6772 47.5489 53.4966C49.9292 50.1975 51.3231 48.6881 51.7091 48.3216C51.1086 47.1787 49.6075 44.7853 48.8999 43.6641C48.4924 44.16 48.2136 44.5481 47.892 44.9363Z" fill="white"/>
<path fill-rule="evenodd" clip-rule="evenodd" d="M-11.3577 42.176C-21.2436 41.0116 -23.8599 40.796 -23.8384 52.1379C-24.5461 65.9163 -23.0021 80.5788 -17.7267 93.3007C-9.98527 113.807 8.80009 126.378 30.0945 128.944C39.3585 131.509 30.459 124.674 28.7006 121.267C24.3688 115.445 19.4151 108.998 15.6838 102.853C5.6692 86.2929 2.66698 65.981 4.1252 46.8551C-0.592587 44.7204 -6.14671 42.7798 -11.3363 42.176H-11.3577ZM-17.5337 49.6151C-20.343 76.9132 -10.7358 110.292 18.1713 118.723C12.4028 110.443 6.50554 100.999 3.33175 91.1445C-0.656919 79.6948 -2.41537 68.3529 -2.35103 55.9976C-2.69415 51.3401 -1.3217 52.3104 -3.98081 51.3832C-8.44127 49.9601 -12.7302 49.2485 -17.4694 49.0976L-17.5337 49.6366V49.6151Z" fill="white"/>
<path d="M15.6628 60.9353C13.7971 59.6416 10.6019 57.7656 8.41455 56.6013L8.67188 48.6663C23.4042 54.8331 35.649 68.051 44.6772 80.9885C48.5157 75.2097 54.22 68.1803 59.4524 63.5875C62.4332 71.3716 65.993 80.4063 66.1216 88.8588C64.5562 92.5675 62.7549 96.0175 60.6319 99.4459C57.9299 103.845 53.7482 109.128 50.2313 112.944C48.1297 115.187 44.7201 119.779 41.7822 115.877C34.1479 108.265 27.6288 98.6913 23.2327 88.8372C22.6537 85.4519 24.9054 79.2203 25.3557 75.7919C26.6424 76.9778 29.2586 79.7378 30.438 81.0531L29.3229 86.8319C33.4617 94.5297 38.4368 102.982 44.6557 109.257C50.7888 103.263 55.8926 94.6375 59.8813 87.0906C59.8813 84.3091 58.273 78.2069 57.308 75.49C34.5554 105.376 53.8554 87.9963 15.7057 60.9785L15.6628 60.9353Z" fill="white"/>
<path d="M60.9098 67.6628C61.2958 68.6762 61.6174 69.2369 62.0034 70.3581C62.4538 69.7544 63.8262 68.5469 65.6704 66.9081C65.6704 66.9081 65.0271 64.8812 64.491 63.5444C63.9978 62.3153 63.0113 60.3315 63.0113 60.3315L59.4515 63.5875C59.4515 63.5875 59.6017 64.1912 59.8375 64.7734C60.0734 65.3556 60.5238 66.6494 60.8883 67.6628H60.9098Z" fill="white"/>
<path d="M103.543 41.8743C88.7033 43.2543 74.3141 50.6934 63.0128 60.3103C63.2487 60.6553 65.6076 66.5203 65.6505 66.8868C77.2091 57.464 91.6412 49.529 106.738 49.2056C108.196 64.8815 106.266 81.9159 98.7608 95.9531C94.5362 103.759 87.7169 110.767 79.8896 114.95C78.1312 115.683 67.7092 121.505 72.4484 116.632C86.0013 98.2387 93.0137 75.0806 91.2767 52.095C89.0893 52.785 87.095 53.5828 85.0578 54.4237C86.6661 69.194 82.5916 85.0856 76.1154 98.3465C71.7407 106.842 65.2216 114.971 59.5817 122.734C58.5309 125.084 50.4035 131.294 58.5309 129.052C86.0442 125.925 105.58 107.748 111.027 80.4928C113.343 70.5094 113.815 58.8009 112.871 48.645C112.893 40.7531 109.376 41.7881 103.586 41.8743H103.543Z" fill="white"/>
<path d="M29.4721 72.5148C28.8931 71.911 27.9495 70.876 27.4134 70.337C27.2204 70.1429 26.8773 69.9057 26.5985 69.647L25.3333 75.7923L27.4777 78.0564L30.4156 81.0535L31.8524 75.016C30.9732 74.0457 30.0511 73.097 29.4935 72.5148H29.4721Z" fill="white"/>
<path d="M4.03972 47.545C4.01828 47.9331 3.9325 49.1406 3.88961 50.2187C3.84672 51.1244 3.80383 52.9356 3.80383 54.5744C4.83317 54.984 7.32073 56.0837 8.43584 56.6012L8.69318 48.6662C7.55662 48.1703 5.17628 47.2647 4.1255 46.855L4.06117 47.545H4.03972Z" fill="white"/>
</g>
</svg>
