<svg width="90" height="90" viewBox="0 0 90 90" fill="none" xmlns="http://www.w3.org/2000/svg">
<g opacity="0.2">
<path d="M48.7051 5.34375C48.7051 8.29687 46.9569 10.6875 44.7891 10.6875C42.6214 10.6875 40.8732 8.29687 40.8732 5.34375C40.8732 2.39062 42.6214 0 44.7891 0C46.9569 0 48.7051 2.39062 48.7051 5.34375Z" fill="white"/>
<path d="M48.7051 84.6562C48.7051 87.6094 46.9569 90 44.7891 90C42.6214 90 40.8732 87.6094 40.8732 84.6562C40.8732 81.7031 42.6214 79.3125 44.7891 79.3125C46.9569 79.3125 48.7051 81.7031 48.7051 84.6562Z" fill="white"/>
<path d="M54.4244 41.4704L51.4455 44.3813C50.1308 41.1751 47.6974 36.7173 46.6484 34.8892C48.2008 32.7376 49.1099 31.7532 49.3616 31.5142C50.3686 33.1032 52.7881 37.322 54.4104 41.4704H54.4244Z" fill="white"/>
<path d="M71.0402 28.9126C71.0962 29.4469 71.1521 30.0094 71.1661 30.1501V30.2485L71.2081 30.4454L75.0541 28.9547C73.8933 19.4063 71.7255 11.7985 70.3549 7.93131C70.0053 6.961 68.9144 6.511 67.9914 6.93287C57.1246 11.9532 48.118 20.9672 44.7894 24.9891C36.496 15.2157 26.7341 9.28131 21.6014 6.91881C20.6644 6.48287 19.5735 6.98912 19.2379 7.9735C15.7415 17.986 14.6226 26.0719 14.5107 28.9969L18.3428 30.5719L18.3707 30.3188C18.3707 30.1922 18.4267 29.7563 18.4686 29.3626C18.5106 28.9688 18.5945 28.2376 18.6644 27.7172C18.7344 27.1969 18.9442 25.8188 19.14 24.6657C19.3357 23.4985 19.6294 21.9094 19.7833 21.136C19.9371 20.3626 20.2029 19.2376 20.3427 18.6329C20.4826 18.0282 20.8742 16.5516 21.2098 15.3422C21.5455 14.1329 21.8811 12.9797 21.951 12.7688C22.035 12.5719 22.1049 12.4032 22.1329 12.4032C22.1608 12.4032 22.4685 12.5579 22.8321 12.7688C23.1818 12.9657 23.6713 13.2329 23.895 13.3594C24.1328 13.486 24.7901 13.8797 25.3775 14.2313C25.9649 14.5969 26.6362 15.0188 26.8879 15.1735C27.1397 15.3422 27.4753 15.5532 27.6292 15.6657C27.797 15.7641 28.1047 15.9751 28.3424 16.1297C28.5802 16.2844 28.9158 16.5235 29.0976 16.6641C29.2795 16.8047 29.4473 16.9172 29.4753 16.9172C29.5032 16.9172 30.0626 17.3391 30.7479 17.8454C31.4332 18.3657 32.4262 19.1251 32.9297 19.561C33.4471 19.9829 34.3562 20.7563 34.9296 21.2485C35.517 21.7547 36.5379 22.6969 37.2093 23.3438C37.8806 24.0047 38.6218 24.736 38.8595 24.9751C39.0973 25.2141 39.6148 25.7907 40.0203 26.2407C40.4259 26.6907 41.0693 27.4219 41.4329 27.8438C41.8944 28.3782 42.0902 28.6735 42.0482 28.7157C42.0203 28.7719 41.7406 29.1797 41.4189 29.6438L41.3769 29.7001C41.0413 30.1922 40.6357 30.7688 40.4958 30.9797C40.342 31.1907 39.9085 31.8938 39.5029 32.5407C39.0973 33.1876 38.3281 34.5235 37.7827 35.5219C37.2512 36.5063 36.524 37.8985 36.1883 38.6157C35.8527 39.3329 35.4611 40.1766 35.3212 40.5141C35.1813 40.8516 34.9856 41.1469 34.9436 41.1751L38.1463 44.4235C38.1463 44.4235 38.2302 44.2688 38.2722 44.1001C38.3561 43.861 38.5379 43.3829 38.6917 43.0454C38.8316 42.7501 39.0414 42.2719 39.2092 41.9063L39.2791 41.7516C39.4469 41.386 39.8106 40.6266 40.1043 40.0641C40.384 39.5016 40.9853 38.3766 41.4469 37.561C41.9084 36.7313 42.3 36.0282 42.328 36.0001C42.3559 35.9579 42.5238 35.6907 42.6916 35.4094C42.8594 35.1282 43.1531 34.6501 43.3489 34.3547C43.5447 34.0454 43.9363 33.4547 44.216 33.0188C44.3559 32.8219 44.5516 32.5266 44.7614 32.2032C45.0132 31.8516 45.2789 31.4579 45.5027 31.1344C45.9362 30.5297 46.5376 29.7001 46.8593 29.2922C47.069 29.0391 47.2509 28.786 47.5166 28.4626C47.6704 28.2797 47.9082 27.9985 48.0201 27.8579C48.3417 27.4782 49.1948 26.5501 49.8941 25.8188C50.6074 25.0735 51.5025 24.1454 51.8941 23.7657C52.2856 23.3719 53.0269 22.6829 53.5443 22.2047C54.0618 21.7407 54.7751 21.0938 55.1247 20.7985C55.4743 20.4891 56.3415 19.786 57.0267 19.2235C57.712 18.661 58.6351 17.9438 59.0546 17.6344C59.4742 17.311 60.0196 16.9313 60.2434 16.7766C60.4812 16.6079 60.9147 16.3126 61.2084 16.1157C61.5161 15.9188 62.0336 15.5532 62.3692 15.3282C62.7049 15.1032 63.502 14.5969 64.1454 14.2172C64.7887 13.8235 65.6698 13.3032 66.1173 13.0641C66.5649 12.8251 67.0124 12.5719 67.1243 12.5016C67.2362 12.4454 67.376 12.4032 67.432 12.4313C67.5019 12.4594 67.5998 12.6704 67.6697 12.9235C67.7397 13.1766 67.9634 13.936 68.1592 14.6391C68.355 15.3282 68.5788 16.1157 68.6627 16.3969C68.7186 16.6641 68.8305 17.086 68.9005 17.3532V17.3813C68.9704 17.6344 69.1522 18.3516 69.292 18.9422C69.4319 19.5469 69.6557 20.5313 69.7815 21.136C69.9074 21.7407 70.1172 22.8797 70.271 23.6813C70.4109 24.4829 70.6207 25.7626 70.7186 26.536C70.8305 27.3094 70.9563 28.3922 71.0123 28.9266L71.0402 28.9126Z" fill="white"/>
<path d="M46.886 29.3062C46.5644 29.7141 45.963 30.5437 45.5294 31.1484C45.3057 31.4719 45.0399 31.8516 44.7882 32.2172C45.4315 33.075 46.2986 34.3547 46.6623 34.8891C48.2147 32.7375 49.1237 31.7531 49.3755 31.5141C48.9839 30.7687 48.0049 29.2078 47.5434 28.4766C47.2776 28.8 47.0958 29.0531 46.886 29.3062Z" fill="white"/>
<path fill-rule="evenodd" clip-rule="evenodd" d="M8.24488 27.5062C1.79756 26.7468 0.0913205 26.6062 0.105306 34.003C-0.356216 42.989 0.650742 52.5515 4.09118 60.8483C9.13996 74.2218 21.3913 82.4202 35.2789 84.0936C41.3207 85.7671 35.5167 81.3093 34.3699 79.0874C31.5448 75.2905 28.3141 71.0858 25.8806 67.078C19.3494 56.278 17.3914 43.0311 18.3424 30.5577C15.2656 29.1655 11.6434 27.8999 8.25887 27.5062H8.24488ZM4.21705 32.3577C2.38495 50.1608 8.65047 71.9296 27.503 77.428C23.7409 72.028 19.8948 65.8686 17.825 59.4421C15.2237 51.9749 14.0769 44.578 14.1188 36.5202C13.895 33.4827 14.7901 34.1155 13.0559 33.5108C10.1469 32.5827 7.34981 32.1187 4.25901 32.0202L4.21705 32.3718V32.3577Z" fill="white"/>
<path d="M25.8666 39.7406C24.6499 38.8968 22.5661 37.6734 21.1395 36.914L21.3074 31.739C30.9154 35.7609 38.9011 44.3812 44.7891 52.8187C47.2925 49.0499 51.0126 44.4656 54.4251 41.4703C56.3691 46.5468 58.6907 52.439 58.7746 57.9515C57.7536 60.3703 56.5789 62.6203 55.1943 64.8562C53.4321 67.7249 50.7049 71.1703 48.4113 73.6593C47.0407 75.1218 44.817 78.1171 42.901 75.5718C37.9222 70.6078 33.6706 64.364 30.8035 57.9374C30.4259 55.7296 31.8944 51.6656 32.1881 49.4296C33.0272 50.2031 34.7335 52.0031 35.5027 52.8609L34.7754 56.6296C37.4746 61.6499 40.7193 67.1624 44.7751 71.2546C48.7749 67.3453 52.1035 61.7203 54.7048 56.7984C54.7048 54.9843 53.6559 51.0046 53.0265 49.2328C38.1879 68.7234 50.7749 57.389 25.8946 39.7687L25.8666 39.7406Z" fill="white"/>
<path d="M55.3758 44.1279C55.6276 44.7889 55.8373 45.1545 56.0891 45.8857C56.3828 45.492 57.2779 44.7045 58.4806 43.6357C58.4806 43.6357 58.061 42.3139 57.7114 41.442C57.3897 40.6404 56.7464 39.3467 56.7464 39.3467L54.4248 41.4701C54.4248 41.4701 54.5227 41.8639 54.6765 42.2436C54.8304 42.6232 55.1241 43.467 55.3618 44.1279H55.3758Z" fill="white"/>
<path d="M83.18 27.3094C73.502 28.2094 64.1177 33.0609 56.7473 39.3328C56.9012 39.5578 58.4396 43.3828 58.4675 43.6219C66.0057 37.4766 75.418 32.3016 85.2638 32.0906C86.2148 42.3141 84.9561 53.4234 80.0612 62.5781C77.306 67.6687 72.8587 72.2391 67.7539 74.9672C66.6071 75.4453 59.8102 79.2422 62.901 76.0641C71.7398 64.0687 76.3131 48.9656 75.1802 33.975C73.7537 34.425 72.4531 34.9453 71.1244 35.4937C72.1734 45.1266 69.5161 55.4906 65.2925 64.1391C62.4394 69.6797 58.1878 74.9812 54.5096 80.0437C53.8243 81.5765 48.5238 85.6265 53.8243 84.1641C71.7678 82.125 84.5086 70.2703 88.0609 52.4953C89.5714 45.9844 89.879 38.3484 89.2637 31.725C89.2777 26.5781 86.984 27.2531 83.2079 27.3094H83.18Z" fill="white"/>
<path d="M34.8729 47.2922C34.4953 46.8984 33.8799 46.2234 33.5303 45.8719C33.4044 45.7453 33.1807 45.5906 32.9989 45.4219L32.1737 49.4297L33.5723 50.9063L35.4883 52.8609L36.4253 48.9234C35.8519 48.2906 35.2505 47.6719 34.8869 47.2922H34.8729Z" fill="white"/>
<path d="M18.2867 31.0076C18.2727 31.2607 18.2167 32.0482 18.1888 32.7514C18.1608 33.342 18.1328 34.5232 18.1328 35.592C18.8041 35.8592 20.4264 36.5764 21.1537 36.9139L21.3215 31.7389C20.5803 31.4154 19.0279 30.8248 18.3426 30.5576L18.3006 31.0076H18.2867Z" fill="white"/>
</g>
</svg>
