<svg width="12" height="12" viewBox="0 0 12 12" fill="none" xmlns="http://www.w3.org/2000/svg">
<path d="M4.87378 4.72504V4.25789C4.71373 4.23651 4.55102 4.22315 4.38297 4.22315C2.37977 4.22052 0.75 5.85163 0.75 7.8592C0.75 9.0899 1.3635 10.1791 2.30242 10.8385C1.69692 10.1898 1.32615 9.31681 1.32615 8.36109C1.32615 6.38288 2.91058 4.77043 4.87378 4.72504Z" fill="white"/>
<path d="M4.96203 10.0218C5.85561 10.0218 6.58647 9.30902 6.61849 8.4227L6.62117 0.501892H8.06688C8.03752 0.339043 8.02153 0.170858 8.02153 0H6.04766L6.04499 7.92081C6.013 8.80713 5.28211 9.5199 4.38855 9.5199C4.11114 9.5199 3.84974 9.4505 3.61768 9.32769C3.91642 9.74681 4.40722 10.0218 4.96203 10.0218Z" fill="white"/>
<path d="M10.7687 3.19003V2.74956C10.2166 2.74956 9.70445 2.58671 9.27234 2.30371C9.65643 2.74422 10.1766 3.06459 10.7687 3.19003Z" fill="white"/>
<path d="M9.27231 2.30394C8.85084 1.82075 8.59745 1.19072 8.59745 0.501953H8.06934C8.20534 1.25479 8.65349 1.90085 9.27231 2.30394Z" fill="white"/>
<path d="M4.38567 6.1963C3.47076 6.1963 2.72656 6.94114 2.72656 7.85682C2.72656 8.49488 3.08932 9.05014 3.61746 9.32779C3.42008 9.05549 3.30272 8.7218 3.30272 8.35871C3.30272 7.44303 4.04691 6.69819 4.96184 6.69819C5.13255 6.69819 5.29791 6.72755 5.45263 6.77561V4.7574C5.29257 4.73602 5.12988 4.72266 4.96184 4.72266C4.93249 4.72266 4.90581 4.72533 4.87647 4.72533V6.27372C4.7191 6.22566 4.55639 6.1963 4.38567 6.1963Z" fill="white"/>
<path d="M10.7685 3.19043V4.72546C9.74425 4.72546 8.79467 4.39712 8.0211 3.84182V7.85962C8.0211 9.86451 6.39136 11.4983 4.38547 11.4983C3.61193 11.4983 2.89174 11.2527 2.30225 10.8389C2.96642 11.5517 3.91334 12.0002 4.96165 12.0002C6.96483 12.0002 8.59728 10.3691 8.59728 8.36151V4.34371C9.37081 4.89901 10.3204 5.22735 11.3447 5.22735V3.25186C11.1446 3.25186 10.9526 3.23048 10.7685 3.19043Z" fill="white"/>
<path d="M8.02123 7.85945V3.84164C8.7948 4.39694 9.74438 4.72529 10.7687 4.72529V3.19026C10.1765 3.06482 9.65635 2.74445 9.27226 2.30394C8.6534 1.90085 8.20797 1.25479 8.06658 0.501953H6.62087L6.61819 8.42272C6.58621 9.30904 5.85531 10.0219 4.96177 10.0219C4.40694 10.0219 3.91881 9.74688 3.61473 9.33042C3.08658 9.0501 2.72382 8.49751 2.72382 7.85945C2.72382 6.94378 3.46802 6.19893 4.38293 6.19893C4.55364 6.19893 4.71902 6.22829 4.87373 6.27635V4.72796C2.91054 4.77068 1.32611 6.38313 1.32611 8.36134C1.32611 9.31706 1.69688 10.1874 2.30237 10.8388C2.89186 11.2526 3.61206 11.4982 4.3856 11.4982C6.38882 11.4982 8.02123 9.86434 8.02123 7.85945Z" fill="white"/>
</svg>
