<svg width="12" height="10" viewBox="0 0 12 10" fill="none" xmlns="http://www.w3.org/2000/svg">
<path d="M11.7 2.07481C11.55 1.54981 11.175 1.1748 10.65 1.0248C9.75001 0.799805 5.925 0.799805 5.925 0.799805C5.925 0.799805 2.175 0.799805 1.2 1.0248C0.675005 1.1748 0.299998 1.54981 0.149998 2.07481C-2.29105e-06 3.04981 0 4.99981 0 4.99981C0 4.99981 2.27988e-06 6.94981 0.225002 7.92481C0.375002 8.44981 0.749998 8.82481 1.275 8.9748C2.175 9.19981 6 9.19981 6 9.19981C6 9.19981 9.74999 9.19981 10.725 8.9748C11.25 8.82481 11.625 8.44981 11.775 7.92481C12 6.94981 12 4.99981 12 4.99981C12 4.99981 12 3.04981 11.7 2.07481ZM4.8 6.79981V3.19981L7.95 4.99981L4.8 6.79981Z" fill="white"/>
</svg>
