<svg width="40" height="40" viewBox="0 0 40 40" fill="none" xmlns="http://www.w3.org/2000/svg">
<path d="M21.6466 2.375C21.6466 3.6875 20.8696 4.75 19.9062 4.75C18.9427 4.75 18.1658 3.6875 18.1658 2.375C18.1658 1.0625 18.9427 0 19.9062 0C20.8696 0 21.6466 1.0625 21.6466 2.375Z" fill="#1782CA"/>
<path d="M21.6466 37.625C21.6466 38.9375 20.8696 40 19.9062 40C18.9427 40 18.1658 38.9375 18.1658 37.625C18.1658 36.3125 18.9427 35.25 19.9062 35.25C20.8696 35.25 21.6466 36.3125 21.6466 37.625Z" fill="#FCD34D"/>
<path d="M24.1889 18.4313L22.8649 19.7251C22.2806 18.3001 21.1991 16.3188 20.7329 15.5063C21.4229 14.5501 21.8269 14.1126 21.9388 14.0063C22.3863 14.7126 23.4616 16.5876 24.1827 18.4313H24.1889Z" fill="#1782CA"/>
<path d="M31.5732 12.85C31.5981 13.0875 31.6229 13.3375 31.6291 13.4V13.4438L31.6478 13.5313L33.3571 12.8688C32.8412 8.62504 31.8778 5.24379 31.2686 3.52504C31.1132 3.09379 30.6284 2.89379 30.2182 3.08129C25.3885 5.31254 21.3855 9.31879 19.9062 11.1063C16.2202 6.76254 11.8816 4.12504 9.60038 3.07504C9.18392 2.88129 8.69909 3.10629 8.54991 3.54379C6.99596 7.99379 6.4987 11.5875 6.44897 12.8875L8.1521 13.5875L8.16453 13.475C8.16453 13.4188 8.1894 13.225 8.20804 13.05C8.22669 12.875 8.26399 12.55 8.29506 12.3188C8.32614 12.0875 8.41938 11.475 8.5064 10.9625C8.59342 10.4438 8.72395 9.73754 8.79233 9.39379C8.8607 9.05004 8.9788 8.55004 9.04096 8.28129C9.10312 8.01254 9.27716 7.35629 9.42634 6.81879C9.57552 6.28129 9.7247 5.76879 9.75578 5.67504C9.79307 5.58754 9.82415 5.51254 9.83658 5.51254C9.84901 5.51254 9.98576 5.58129 10.1474 5.67504C10.3028 5.76254 10.5203 5.88129 10.6198 5.93754C10.7254 5.99379 11.0176 6.16879 11.2786 6.32504C11.5397 6.48754 11.8381 6.67504 11.9499 6.74379C12.0618 6.81879 12.211 6.91254 12.2794 6.96254C12.354 7.00629 12.4907 7.10004 12.5964 7.16879C12.7021 7.23754 12.8512 7.34379 12.932 7.40629C13.0128 7.46879 13.0874 7.51879 13.0999 7.51879C13.1123 7.51879 13.3609 7.70629 13.6655 7.93129C13.9701 8.16254 14.4114 8.50004 14.6352 8.69379C14.8652 8.88129 15.2692 9.22504 15.524 9.44379C15.7851 9.66879 16.2388 10.0875 16.5372 10.375C16.8356 10.6688 17.165 10.9938 17.2707 11.1C17.3763 11.2063 17.6063 11.4625 17.7866 11.6625C17.9668 11.8625 18.2528 12.1875 18.4144 12.375C18.6195 12.6125 18.7065 12.7438 18.6879 12.7625C18.6754 12.7875 18.5511 12.9688 18.4082 13.175L18.3895 13.2C18.2403 13.4188 18.0601 13.675 17.9979 13.7688C17.9295 13.8625 17.7369 14.175 17.5566 14.4625C17.3763 14.75 17.0345 15.3438 16.7921 15.7875C16.5559 16.225 16.2326 16.8438 16.0835 17.1625C15.9343 17.4813 15.7602 17.8563 15.6981 18.0063C15.6359 18.1563 15.5489 18.2875 15.5302 18.3L16.9537 19.7438C16.9537 19.7438 16.991 19.675 17.0096 19.6C17.0469 19.4938 17.1277 19.2813 17.1961 19.1313C17.2582 19 17.3515 18.7875 17.4261 18.625L17.4571 18.5563C17.5317 18.3938 17.6933 18.0563 17.8239 17.8063C17.9482 17.5563 18.2155 17.0563 18.4206 16.6938C18.6257 16.325 18.7998 16.0125 18.8122 16C18.8246 15.9813 18.8992 15.8625 18.9738 15.7375C19.0484 15.6125 19.1789 15.4 19.2659 15.2688C19.353 15.1313 19.527 14.8688 19.6513 14.675C19.7135 14.5875 19.8005 14.4563 19.8937 14.3125C20.0056 14.1563 20.1237 13.9813 20.2232 13.8375C20.4159 13.5688 20.6831 13.2 20.8261 13.0188C20.9193 12.9063 21.0001 12.7938 21.1182 12.65C21.1866 12.5688 21.2923 12.4438 21.342 12.3813C21.485 12.2125 21.8641 11.8 22.1749 11.475C22.4919 11.1438 22.8897 10.7313 23.0638 10.5625C23.2378 10.3875 23.5673 10.0813 23.7972 9.86879C24.0272 9.66254 24.3442 9.37504 24.4996 9.24379C24.655 9.10629 25.0404 8.79379 25.345 8.54379C25.6496 8.29379 26.0598 7.97504 26.2463 7.83754C26.4327 7.69379 26.6752 7.52504 26.7746 7.45629C26.8803 7.38129 27.073 7.25004 27.2035 7.16254C27.3402 7.07504 27.5702 6.91254 27.7194 6.81254C27.8686 6.71254 28.2229 6.48754 28.5088 6.31879C28.7947 6.14379 29.1863 5.91254 29.3852 5.80629C29.5841 5.70004 29.7831 5.58754 29.8328 5.55629C29.8825 5.53129 29.9447 5.51254 29.9695 5.52504C30.0006 5.53754 30.0441 5.63129 30.0752 5.74379C30.1063 5.85629 30.2057 6.19379 30.2927 6.50629C30.3798 6.81254 30.4792 7.16254 30.5165 7.28754C30.5414 7.40629 30.5911 7.59379 30.6222 7.71254V7.72504C30.6533 7.83754 30.7341 8.15629 30.7962 8.41879C30.8584 8.68754 30.9578 9.12504 31.0138 9.39379C31.0697 9.66254 31.163 10.1688 31.2313 10.525C31.2935 10.8813 31.3867 11.45 31.4302 11.7938C31.48 12.1375 31.5359 12.6188 31.5608 12.8563L31.5732 12.85Z" fill="#1782CA"/>
<path d="M20.8386 13.025C20.6957 13.2063 20.4284 13.575 20.2357 13.8437C20.1362 13.9875 20.0181 14.1562 19.9062 14.3187C20.1922 14.7 20.5776 15.2687 20.7392 15.5062C21.4291 14.55 21.8331 14.1125 21.945 14.0062C21.771 13.675 21.3359 12.9812 21.1308 12.6562C21.0127 12.8 20.9319 12.9125 20.8386 13.025Z" fill="#1782CA"/>
<path fill-rule="evenodd" clip-rule="evenodd" d="M3.66439 12.2251C0.798913 11.8876 0.0405869 11.8251 0.0468027 15.1126C-0.158318 19.1063 0.289219 23.3563 1.8183 27.0438C4.0622 32.9876 9.50724 36.6313 15.6795 37.3751C18.3647 38.1188 15.7852 36.1376 15.2755 35.1501C14.0199 33.4626 12.5841 31.5938 11.5025 29.8126C8.59973 25.0126 7.72952 19.1251 8.1522 13.5813C6.78472 12.9626 5.17483 12.4001 3.67061 12.2251H3.66439ZM1.87425 14.3813C1.05998 22.2938 3.84465 31.9688 12.2235 34.4126C10.5515 32.0126 8.84215 29.2751 7.92221 26.4188C6.76607 23.1001 6.25638 19.8126 6.27503 16.2313C6.17557 14.8813 6.57338 15.1626 5.80263 14.8938C4.50974 14.4813 3.26658 14.2751 1.89289 14.2313L1.87425 14.3876V14.3813Z" fill="#FCD34D"/>
<path d="M11.4962 17.6627C10.9554 17.2877 10.0293 16.7439 9.39526 16.4064L9.46985 14.1064C13.7401 15.8939 17.2893 19.7252 19.9062 23.4752C21.0188 21.8002 22.6722 19.7627 24.1888 18.4314C25.0528 20.6877 26.0847 23.3064 26.122 25.7564C25.6682 26.8314 25.1461 27.8314 24.5307 28.8252C23.7475 30.1002 22.5354 31.6314 21.5161 32.7377C20.9069 33.3877 19.9186 34.7189 19.067 33.5877C16.8542 31.3814 14.9646 28.6064 13.6904 25.7502C13.5225 24.7689 14.1752 22.9627 14.3057 21.9689C14.6787 22.3127 15.437 23.1127 15.7789 23.4939L15.4557 25.1689C16.6553 27.4002 18.0974 29.8502 19.9 31.6689C21.6777 29.9314 23.157 27.4314 24.3132 25.2439C24.3132 24.4377 23.847 22.6689 23.5673 21.8814C16.9723 30.5439 22.5665 25.5064 11.5086 17.6752L11.4962 17.6627Z" fill="#FCD34D"/>
<path d="M24.6116 19.6125C24.7235 19.9063 24.8168 20.0688 24.9286 20.3938C25.0592 20.2188 25.457 19.8688 25.9915 19.3938C25.9915 19.3938 25.8051 18.8063 25.6497 18.4188C25.5067 18.0625 25.2208 17.4875 25.2208 17.4875L24.189 18.4313C24.189 18.4313 24.2325 18.6063 24.3008 18.7751C24.3692 18.9438 24.4998 19.3188 24.6054 19.6125H24.6116Z" fill="#FCD34D"/>
<path d="M36.9685 12.1376C32.6672 12.5376 28.4964 14.6939 25.2207 17.4814C25.2891 17.5814 25.9728 19.2814 25.9852 19.3876C29.3355 16.6564 33.5188 14.3564 37.8947 14.2626C38.3174 18.8064 37.7579 23.7439 35.5824 27.8126C34.3579 30.0751 32.3813 32.1064 30.1125 33.3189C29.6028 33.5314 26.5819 35.2189 27.9556 33.8064C31.884 28.4751 33.9166 21.7626 33.4131 15.1001C32.7791 15.3001 32.201 15.5314 31.6105 15.7751C32.0767 20.0564 30.8957 24.6626 29.0185 28.5064C27.7505 30.9689 25.8609 33.3251 24.2262 35.5751C23.9216 36.2564 21.5658 38.0564 23.9216 37.4064C31.8964 36.5001 37.559 31.2314 39.1378 23.3314C39.8091 20.4376 39.9459 17.0439 39.6724 14.1001C39.6786 11.8126 38.6592 12.1126 36.981 12.1376H36.9685Z" fill="#FCD34D"/>
<path d="M15.4992 21.0188C15.3314 20.8438 15.0579 20.5437 14.9025 20.3875C14.8465 20.3312 14.7471 20.2625 14.6663 20.1875L14.2996 21.9688L14.9211 22.625L15.7727 23.4938L16.1892 21.7438C15.9343 21.4625 15.667 21.1875 15.5054 21.0188H15.4992Z" fill="#FCD34D"/>
<path d="M8.12746 13.7813C8.12124 13.8938 8.09638 14.2438 8.08395 14.5563C8.07151 14.8188 8.05908 15.3438 8.05908 15.8188C8.35744 15.9375 9.07847 16.2563 9.40169 16.4063L9.47628 14.1063C9.14685 13.9625 8.45689 13.7 8.15232 13.5813L8.13367 13.7813H8.12746Z" fill="#FCD34D"/>
</svg>
